<svg width="51" height="32" viewBox="0 0 51 32" fill="none" xmlns="http://www.w3.org/2000/svg">
<rect x="0.5" width="50" height="32" rx="16" fill="#858584"/>
<path d="M14.292 16.432V14.576L17.94 12.24V12.048H11.604V10.8H19.092V12.848L15.444 15.184V15.376H16.084C16.5107 15.376 16.9213 15.4453 17.316 15.584C17.7107 15.7227 18.0573 15.9253 18.356 16.192C18.6653 16.4587 18.9107 16.7893 19.092 17.184C19.284 17.568 19.38 18.016 19.38 18.528V18.816C19.38 19.296 19.284 19.744 19.092 20.16C18.9 20.576 18.6333 20.9387 18.292 21.248C17.9507 21.5467 17.5453 21.7867 17.076 21.968C16.6173 22.1387 16.116 22.224 15.572 22.224C14.9427 22.224 14.3773 22.128 13.876 21.936C13.3747 21.744 12.948 21.4827 12.596 21.152C12.244 20.8107 11.972 20.416 11.78 19.968C11.5987 19.5093 11.508 19.024 11.508 18.512V17.648H12.852V18.416C12.852 18.8213 12.916 19.184 13.044 19.504C13.1827 19.8133 13.3693 20.08 13.604 20.304C13.8493 20.5173 14.1373 20.6827 14.468 20.8C14.7987 20.9173 15.156 20.976 15.54 20.976C15.892 20.976 16.2173 20.9173 16.516 20.8C16.8253 20.6827 17.092 20.5227 17.316 20.32C17.54 20.1067 17.716 19.8613 17.844 19.584C17.972 19.296 18.036 18.992 18.036 18.672V18.576C18.036 17.904 17.8227 17.3813 17.396 17.008C16.9693 16.624 16.436 16.432 15.796 16.432H14.292ZM21.2569 15.152C21.2569 13.7013 21.6035 12.576 22.2969 11.776C22.9902 10.976 23.9555 10.576 25.1929 10.576C26.4302 10.576 27.3955 10.976 28.0889 11.776C28.7822 12.576 29.1289 13.7013 29.1289 15.152V17.648C29.1289 19.1413 28.7822 20.2773 28.0889 21.056C27.3955 21.8347 26.4302 22.224 25.1929 22.224C23.9555 22.224 22.9902 21.8347 22.2969 21.056C21.6035 20.2773 21.2569 19.1413 21.2569 17.648V15.152ZM25.1929 21.008C26.0569 21.008 26.7022 20.7093 27.1289 20.112C27.5662 19.504 27.7849 18.6507 27.7849 17.552V15.248C27.7849 14.736 27.7315 14.272 27.6249 13.856C27.5182 13.4293 27.3529 13.0667 27.1289 12.768C26.9155 12.4587 26.6435 12.2187 26.3129 12.048C25.9929 11.8773 25.6195 11.792 25.1929 11.792C24.7555 11.792 24.3769 11.8773 24.0569 12.048C23.7369 12.2187 23.4649 12.4587 23.2409 12.768C23.0275 13.0667 22.8675 13.4293 22.7609 13.856C22.6542 14.272 22.6009 14.736 22.6009 15.248V17.552C22.6009 18.6507 22.8142 19.504 23.2409 20.112C23.6782 20.7093 24.3289 21.008 25.1929 21.008ZM24.1689 16.4C24.1689 16.1227 24.2702 15.8827 24.4729 15.68C24.6755 15.4773 24.9155 15.376 25.1929 15.376C25.4702 15.376 25.7102 15.4773 25.9129 15.68C26.1155 15.8827 26.2169 16.1227 26.2169 16.4C26.2169 16.6773 26.1155 16.9173 25.9129 17.12C25.7102 17.3227 25.4702 17.424 25.1929 17.424C24.9155 17.424 24.6755 17.3227 24.4729 17.12C24.2702 16.9173 24.1689 16.6773 24.1689 16.4ZM38.7978 20.752V22H31.2138V20.08C31.2138 19.568 31.2991 19.1253 31.4698 18.752C31.6404 18.368 31.8804 18.0427 32.1898 17.776C32.5098 17.4987 32.8938 17.2693 33.3418 17.088C33.7898 16.9067 34.2964 16.752 34.8618 16.624C35.8111 16.4107 36.4938 16.1067 36.9098 15.712C37.3364 15.3173 37.5498 14.832 37.5498 14.256V14.16C37.5498 13.872 37.5018 13.5893 37.4058 13.312C37.3098 13.0347 37.1604 12.784 36.9578 12.56C36.7551 12.336 36.4938 12.16 36.1738 12.032C35.8644 11.8933 35.4911 11.824 35.0538 11.824C34.2324 11.824 33.5924 12.0747 33.1338 12.576C32.6858 13.0773 32.4618 13.744 32.4618 14.576V15.28H31.1178V14.48C31.1178 13.968 31.2031 13.4773 31.3738 13.008C31.5444 12.5387 31.7951 12.1227 32.1258 11.76C32.4564 11.3973 32.8671 11.1093 33.3578 10.896C33.8484 10.6827 34.4138 10.576 35.0538 10.576C35.7044 10.576 36.2698 10.6773 36.7498 10.88C37.2298 11.072 37.6298 11.3333 37.9498 11.664C38.2698 11.984 38.5044 12.352 38.6538 12.768C38.8138 13.1733 38.8938 13.5893 38.8938 14.016V14.304C38.8938 15.1573 38.6271 15.888 38.0938 16.496C37.5604 17.0933 36.7071 17.52 35.5338 17.776C34.5098 18 33.7578 18.2987 33.2778 18.672C32.7978 19.0347 32.5578 19.568 32.5578 20.272V20.752H38.7978Z" fill="white"/>
</svg>
